<svg version="1.1" id="Layer_1" xmlns="http://www.w3.org/2000/svg" xmlns:xlink="http://www.w3.org/1999/xlink" x="0px" y="0px" viewBox="0 0 1200 1200" enable-background="new 0 0 1200 1200" xml:space="preserve">
<g>
	<g id="XMLID_27_">
		<g>
			<polygon fill="#0527E2" points="1055.013,428.176 1055.013,538.418 888.289,390.752 888.245,296.543 888.591,296.543 			"></polygon>
			<polygon fill="#0527E2" points="1055.013,723.898 1055.013,805.964 888.894,677.139 888.418,677.139 888.375,583.924 			"></polygon>
			<polygon fill="#0527E2" points="1055.013,1015.341 1055.013,1128.781 888.591,972.429 888.548,881.115 			"></polygon>
			<polygon fill="#0527E2" points="754.667,983.276 897.58,1144.166 837.727,1150 670.484,990.06 			"></polygon>
			<polygon fill="#0527E2" points="543.561,1123.423 461.582,1123.163 461.582,1122.947 312.835,961.582 377.701,961.798 			"></polygon>
			<polygon fill="#0527E2" points="535.48,835.177 538.462,942.653 382.109,787.122 381.893,787.122 384.529,677.139
				533.924,835.22 			"></polygon>
			<polygon fill="#0527E2" points="648.444,384.183 678.997,436.517 678.825,464.477 677.182,464.477 598.228,411.884
				597.839,412.1 536.301,311.106 648.401,384.183 			"></polygon>
			<polygon fill="#2464F0" points="385.48,1122.947 315.557,1122.731 147.321,961.063 223.12,961.322 			"></polygon>
			<polygon fill="#2464F0" points="540.795,1024.762 543.561,1123.423 377.701,961.798 379.689,878.263 381.115,878.306 			"></polygon>
			<polygon fill="#2464F0" points="535.48,835.177 533.924,835.22 384.529,677.139 386.517,593.993 506.958,705.964
				507.001,705.964 533.103,751.383 			"></polygon>
			<polygon fill="#2464F0" points="830.726,977.096 976.145,1136.474 897.58,1144.166 754.667,983.276 797.753,979.775 			"></polygon>
			<polygon fill="#2464F0" points="1055.013,897.407 1055.013,1015.341 888.548,881.115 888.505,773.034 889.369,773.034 			"></polygon>
			<polygon fill="#2464F0" points="1055.013,627.312 1055.013,723.898 888.375,583.924 888.332,472.818 			"></polygon>
			<polygon fill="#2464F0" points="1055.013,326.448 1055.013,428.176 888.591,296.543 888.245,296.543 888.159,165.817 			"></polygon>
			<polygon fill="#2464F0" points="648.401,384.183 536.301,311.106 472.904,207.174 608.902,316.508 			"></polygon>
			<polygon fill="#002955" points="1055.013,1128.781 976.145,1136.474 830.726,977.096 888.591,972.429 			"></polygon>
			<polygon fill="#002955" points="1055.013,805.964 1055.013,897.407 889.369,773.034 888.505,773.034 888.418,677.139
				888.894,677.139 			"></polygon>
			<polygon fill="#002955" points="1055.013,538.418 1055.013,627.312 888.332,472.818 888.289,390.752 			"></polygon>
			<polygon fill="#002955" points="1055.013,216.249 1055.013,326.448 888.159,165.817 888.116,50 			"></polygon>
			<polygon fill="#002955" points="461.582,1122.947 461.582,1123.163 385.48,1122.947 223.12,961.322 270.959,961.452
				312.835,961.582 			"></polygon>
			<polygon fill="#002955" points="538.462,942.653 540.795,1024.762 381.115,878.306 379.689,878.263 381.893,787.122
				382.109,787.122 			"></polygon>
			<polygon fill="#002955" points="388.764,500.519 507.001,705.964 506.958,705.964 386.517,593.993 			"></polygon>
			<polygon fill="#002955" points="678.825,464.477 678.436,544.296 597.839,412.1 598.228,411.884 677.182,464.477 			"></polygon>
			<polygon fill="#002955" points="557.001,227.658 608.902,316.508 472.904,207.174 388.894,69.36 			"></polygon>
			<polygon fill="#ca4bc1" points="735.696,880.769 797.753,979.775 754.667,983.276 670.484,990.06 533.103,751.383
				507.001,705.964 388.264,500.519 386.517,593.993 384.529,677.139 381.893,787.122 379.689,878.263 377.701,961.798
				312.835,961.582 270.959,961.452 270.959,961.063 280.035,153.803 			"></polygon>
			<polygon fill="#ca4bc1" points="888.548,881.115 888.591,972.429 830.726,977.096 797.753,979.775 735.696,880.769
				785.307,59.637 888.116,50 888.159,165.817 888.245,296.543 888.289,390.752 888.332,472.818 888.375,583.924 888.418,677.139
				888.505,773.034 			"></polygon>
			<polygon fill="#ca4bc1" points="785.307,59.637 735.696,880.769 280.035,153.803 280.942,71.737 388.894,69.36 472.904,207.174
				536.301,311.106 597.839,412.1 678.436,544.296 678.825,464.477 678.997,436.517 680.856,69.447 			"></polygon>
			<polygon fill="#ca4bc1" points="280.942,71.737 280.035,153.803 270.959,961.063 270.959,961.452 223.12,961.322
				147.321,961.063 144.987,74.762 			"></polygon>
		</g>
	</g>
</g>
</svg>