<svg xmlns:dc="http://purl.org/dc/elements/1.1/" xmlns:cc="http://creativecommons.org/ns#" xmlns:rdf="http://www.w3.org/1999/02/22-rdf-syntax-ns#" xmlns:svg="http://www.w3.org/2000/svg" xmlns="http://www.w3.org/2000/svg" xmlns:sodipodi="http://sodipodi.sourceforge.net/DTD/sodipodi-0.dtd" xmlns:inkscape="http://www.inkscape.org/namespaces/inkscape" version="1.1" id="Layer_1" x="0px" y="0px" width="1000" height="308.04233" viewBox="110.667 172.481 999.99996 308.04233" enable-background="new 110.667 172.481 178.667 55.037" xml:space="preserve" sodipodi:docname="NBCUniversal_Peacock_Logo.svg" inkscape:version="0.92.4 (5da689c313, 2019-01-14)"><metadata id="metadata47" fill="#ffffff"><rdf:RDF fill="#ffffff"><cc:Work rdf:about="" fill="#ffffff"><dc:format fill="#ffffff">image/svg+xml</dc:format><dc:type rdf:resource="http://purl.org/dc/dcmitype/StillImage" fill="#ffffff"/><dc:title fill="#ffffff"/></cc:Work></rdf:RDF></metadata><defs id="defs45" fill="#ffffff"/><sodipodi:namedview pagecolor="#ffffff" bordercolor="#FFFFFF" borderopacity="1" objecttolerance="10" gridtolerance="10" guidetolerance="10" inkscape:pageopacity="0" inkscape:pageshadow="2" inkscape:window-width="1920" inkscape:window-height="1017" id="namedview43" showgrid="false" fit-margin-top="0" fit-margin-left="0" fit-margin-right="0" fit-margin-bottom="0" inkscape:zoom="1.1613784" inkscape:cx="600.65416" inkscape:cy="103.58227" inkscape:window-x="1912" inkscape:window-y="-8" inkscape:window-maximized="1" inkscape:current-layer="Layer_1" fill="#ffffff"/>
<path d="m 174.92621,267.63008 c -35.44583,0 -64.25921,28.81338 -64.25921,64.2592 v 148.63406 h 30.47009 v -82.49985 l 11.19401,11.80968 44.77604,-17.61377 c 25.49995,-9.95147 42.08387,-32.96636 42.08387,-60.32452 0,-35.44583 -28.81338,-64.2648 -64.2648,-64.2648 z m 11.40669,97.63974 -45.19021,17.61937 v -50.99431 c 0,-20.52421 15.34139,-35.23874 33.78912,-35.23874 18.44772,0 33.78911,14.92162 33.78911,35.23874 0,12.85072 -6.21827,26.94958 -22.38802,33.37494 z m 526.32551,-97.63974 c -35.44583,0 -64.2592,28.81338 -64.2592,64.2592 0,35.44584 28.81337,64.25922 64.2592,64.25922 35.44583,0 64.25921,-28.81338 64.25921,-64.25922 0,-35.44582 -28.81338,-64.2592 -64.25921,-64.2592 z m 0,99.50355 c -19.48317,0 -33.78911,-15.54289 -33.78911,-35.23875 0,-19.69586 14.72012,-35.23874 33.78911,-35.23874 19.48318,0 33.78912,15.54288 33.78912,35.23874 0,19.69586 -14.30594,35.23875 -33.78912,35.23875 z m 139.09676,-70.47749 c 13.2593,0 24.03913,7.25372 29.64174,18.03355 l 23.83764,-18.24064 c -11.60819,-17.20519 -31.09136,-28.60629 -53.47938,-28.60629 -35.45143,0 -64.26481,28.81338 -64.26481,64.25921 0,35.44583 28.81338,64.25921 64.26481,64.25921 22.18093,0 41.86559,-11.40109 53.47938,-28.60629 l -23.83764,-18.24624 c -5.60261,10.78544 -16.38244,18.03915 -29.64174,18.03915 -19.48877,0 -33.78912,-15.54288 -33.78912,-35.23874 0,-19.69586 14.71453,-35.65292 33.78912,-35.65292 z m -259.95287,0 c 13.27049,0 24.05032,7.25372 29.64733,18.03355 l 23.83764,-18.24064 c -11.60819,-17.20519 -31.09696,-28.60629 -53.48497,-28.60629 -35.44583,0 -64.25921,28.81338 -64.25921,64.25921 0,35.44583 28.81338,64.25921 64.25921,64.25921 22.18093,0 41.87678,-11.40109 53.48497,-28.60629 l -23.83764,-18.24624 c -5.59701,10.78544 -16.37684,18.03915 -29.64733,18.03915 -19.48318,0 -33.78912,-15.54288 -33.78912,-35.23874 0,-19.69586 14.51303,-35.65292 33.78912,-35.65292 z M 485.25212,282.97147 c -10.36565,-10.77984 -24.04473,-15.3358 -38.35067,-15.3358 -29.85442,0 -60.11183,27.15667 -60.11183,64.25921 0,37.10255 30.25741,64.25921 60.11183,64.25921 14.30594,0 27.98502,-4.55596 38.35067,-15.33579 v 11.60819 h 30.47569 V 271.56477 h -30.47569 z m -33.78911,84.16216 c -19.47758,0 -34.2033,-15.54289 -34.2033,-35.23875 0,-19.69586 15.1343,-35.23874 34.2033,-35.23874 19.48877,0 33.78911,15.54288 33.78911,35.23874 0,19.69586 -14.30034,35.23875 -33.78911,35.23875 z m 538.55496,-39.59322 h -13.67908 l 52.85811,-56.17713 h -39.17903 l -42.70514,46.02417 V 205.44736 h -30.4701 v 186.98473 h 30.4701 V 358.0217 l 16.79101,-17.83206 35.86001,52.24245 h 36.90105 z M 313.4017,267.63008 c -35.44583,0 -64.25921,28.81338 -64.25921,64.2592 0,35.44584 28.81338,64.25922 64.25921,64.25922 21.14548,0 41.04283,-10.15297 52.44953,-25.90854 l -24.46451,-16.9981 c -2.90485,4.76865 -12.22946,13.88057 -27.98502,13.88057 -14.50744,0 -26.32831,-8.70334 -31.29845,-21.34698 h 92.664 c 1.04105,-4.55596 1.45522,-9.11752 1.45522,-13.88617 0.1959,-35.44023 -27.36935,-64.2592 -62.82077,-64.2592 z m -31.09136,50.37304 c 4.97573,-12.64923 16.79101,-21.34698 31.09136,-21.34698 14.51303,0 25.49995,8.70334 30.06151,21.34698 z" id="path28" inkscape:connector-curvature="0" style="stroke-width:5.59700441" fill="#ffffff"/>
<path d="m 1092.2193,374.18585 c -10.1586,0 -18.4534,8.28917 -18.4534,18.45333 0,10.15296 8.2892,18.44213 18.4534,18.44213 10.1529,0 18.4477,-8.28357 18.4477,-18.44213 0,-10.16416 -8.2892,-18.45333 -18.4477,-18.45333 z" id="path30" inkscape:connector-curvature="0" style="fill:#FFFFFF;stroke-width:5.59700441"/>
<path d="m 1092.2193,323.81281 c -10.1586,0 -18.4534,8.28916 -18.4534,18.45332 0,10.15297 8.2892,18.44214 18.4534,18.44214 10.1529,0 18.4477,-8.28358 18.4477,-18.44214 -0.2071,-10.37125 -8.2892,-18.45332 -18.4477,-18.45332 z" id="path32" inkscape:connector-curvature="0" style="fill:#FFFFFF;stroke-width:5.59700441"/>
<path d="m 1092.2193,424.55889 c -10.1586,0 -18.4534,8.28917 -18.4534,18.45333 0,10.15296 8.2892,18.44213 18.4534,18.44213 10.1529,0 18.4477,-8.28357 18.4477,-18.44213 0,-10.16416 -8.2892,-18.45333 -18.4477,-18.45333 z" id="path34" inkscape:connector-curvature="0" style="fill:#FFFFFF;stroke-width:5.59700441"/>
<path d="m 1092.2193,273.22708 c -10.1586,0 -18.4534,8.28916 -18.4534,18.45332 0,10.15297 8.2892,18.44773 18.4534,18.44773 10.1529,0 18.4477,-8.28916 18.4477,-18.44773 -0.2071,-10.15856 -8.2892,-18.45332 -18.4477,-18.45332 z" id="path36" inkscape:connector-curvature="0" style="fill:#FFFFFF;stroke-width:5.59700441"/>
<path d="m 1092.2193,222.85404 c -10.1586,0 -18.4534,8.28916 -18.4534,18.45332 0,10.15297 8.2892,18.44773 18.4534,18.44773 10.1529,0 18.4477,-8.28916 18.4477,-18.44773 -0.2071,-10.15856 -8.2892,-18.45332 -18.4477,-18.45332 z" id="path38" inkscape:connector-curvature="0" style="fill:#FFFFFF;stroke-width:5.59700441"/>
<path d="m 1092.2193,172.481 c -10.1586,0 -18.4534,8.28916 -18.4534,18.45332 0,10.15297 8.2892,18.44773 18.4534,18.44773 10.1529,0 18.4477,-8.28916 18.4477,-18.44773 -0.2071,-10.15856 -8.2892,-18.45332 -18.4477,-18.45332 z" id="path40" inkscape:connector-curvature="0" style="fill:#FFFFFF;stroke-width:5.59700441"/>
</svg>